<svg width="292" height="105" viewBox="0 0 292 105" fill="none" xmlns="http://www.w3.org/2000/svg">
<path d="M64.2294 9.975V14.21H49.9294V25.595H60.7094V29.775H49.9294V46H45.2544V9.975H64.2294ZM75.2272 9.975V46H70.5522V9.975H75.2272ZM99.9966 46L88.1166 15.585V46H83.4966V9.975H90.9766L102.637 40.39V9.975H107.257V46H99.9966ZM128.873 9.975L139.928 46H134.868L132.503 37.64H119.248L116.883 46H112.098L123.098 9.975H128.873ZM125.903 14.265L120.403 33.46H131.348L125.903 14.265ZM161.281 46L149.401 15.585V46H144.781V9.975H152.261L163.921 40.39V9.975H168.541V46H161.281ZM188.232 9.315C189.662 9.315 191.202 9.46166 192.852 9.755C194.539 10.0117 195.529 10.1583 195.822 10.195L195.712 14.32C192.486 13.7333 189.992 13.44 188.232 13.44C185.739 13.44 183.942 13.9533 182.842 14.98C181.742 16.0067 181.192 17.7117 181.192 20.095V35.825C181.192 38.2083 181.724 39.9133 182.787 40.94C183.887 41.93 185.702 42.425 188.232 42.425C189.992 42.425 192.486 42.1317 195.712 41.545L195.822 45.78C195.529 45.8167 194.539 45.9633 192.852 46.22C191.202 46.5133 189.662 46.66 188.232 46.66C184.016 46.66 181.009 45.7617 179.212 43.965C177.416 42.1683 176.517 39.3633 176.517 35.55V20.425C176.517 16.6117 177.416 13.8067 179.212 12.01C181.009 10.2133 184.016 9.315 188.232 9.315ZM221.925 9.975V14.21H207.625V25.595H220.825V29.775H207.625V41.765H221.925V46H202.95V9.975H221.925ZM238.664 9.315C240.644 9.315 243.229 9.60833 246.419 10.195L246.309 14.32C243.302 13.7333 240.754 13.44 238.664 13.44C236.537 13.44 234.997 13.8617 234.044 14.705C233.127 15.5483 232.669 16.8317 232.669 18.555V19.985C232.669 20.9017 232.779 21.635 232.999 22.185C233.256 22.6983 233.696 23.1567 234.319 23.56C234.942 23.9267 235.877 24.3117 237.124 24.715L242.239 26.42C244.696 27.2633 246.419 28.3817 247.409 29.775C248.436 31.1683 248.949 33.2033 248.949 35.88V36.925C248.949 40.1883 247.996 42.6267 246.089 44.24C244.219 45.8533 241.139 46.66 236.849 46.66C234.759 46.66 232.082 46.2933 228.819 45.56L228.929 41.325C231.972 42.0583 234.576 42.425 236.739 42.425C239.489 42.425 241.432 42.0217 242.569 41.215C243.706 40.3717 244.274 39.07 244.274 37.31V35.495C244.274 34.2117 243.981 33.24 243.394 32.58C242.844 31.8833 241.854 31.2967 240.424 30.82L234.759 28.95C232.229 28.1067 230.469 27.025 229.479 25.705C228.489 24.3483 227.994 22.3133 227.994 19.6V18.995C227.994 15.805 228.837 13.4033 230.524 11.79C232.247 10.14 234.961 9.315 238.664 9.315Z" fill="white"/>
<path d="M64.2294 95.025L64.2294 90.79L49.9294 90.79L49.9294 79.405L60.7094 79.405L60.7094 75.225L49.9294 75.225L49.9294 59L45.2544 59L45.2544 95.025L64.2294 95.025ZM75.2272 95.025L75.2272 59L70.5522 59L70.5522 95.025L75.2272 95.025ZM99.9966 59L88.1166 89.415L88.1166 59L83.4966 59L83.4966 95.025L90.9766 95.025L102.637 64.61L102.637 95.025L107.257 95.025L107.257 59L99.9966 59ZM128.873 95.025L139.928 59L134.868 59L132.503 67.36L119.248 67.36L116.883 59L112.098 59L123.098 95.025L128.873 95.025ZM125.903 90.735L120.403 71.54L131.348 71.54L125.903 90.735ZM161.281 59L149.401 89.415L149.401 59L144.781 59L144.781 95.025L152.261 95.025L163.921 64.61L163.921 95.025L168.541 95.025L168.541 59L161.281 59ZM188.232 95.685C189.662 95.685 191.202 95.5383 192.852 95.245C194.539 94.9883 195.529 94.8417 195.822 94.805L195.712 90.68C192.486 91.2667 189.992 91.56 188.232 91.56C185.739 91.56 183.942 91.0467 182.842 90.02C181.742 88.9933 181.192 87.2883 181.192 84.905L181.192 69.175C181.192 66.7917 181.724 65.0867 182.787 64.06C183.887 63.07 185.702 62.575 188.232 62.575C189.992 62.575 192.486 62.8683 195.712 63.455L195.822 59.22C195.529 59.1833 194.539 59.0367 192.852 58.78C191.202 58.4867 189.662 58.34 188.232 58.34C184.016 58.34 181.009 59.2383 179.212 61.035C177.416 62.8317 176.517 65.6367 176.517 69.45L176.517 84.575C176.517 88.3883 177.416 91.1933 179.212 92.99C181.009 94.7867 184.016 95.685 188.232 95.685ZM221.925 95.025L221.925 90.79L207.625 90.79L207.625 79.405L220.825 79.405L220.825 75.225L207.625 75.225L207.625 63.235L221.925 63.235L221.925 59L202.95 59L202.95 95.025L221.925 95.025ZM238.664 95.685C240.644 95.685 243.229 95.3917 246.419 94.805L246.309 90.68C243.302 91.2666 240.754 91.56 238.664 91.56C236.537 91.56 234.997 91.1383 234.044 90.295C233.127 89.4517 232.669 88.1683 232.669 86.445L232.669 85.015C232.669 84.0983 232.779 83.365 232.999 82.815C233.256 82.3017 233.696 81.8433 234.319 81.44C234.942 81.0733 235.877 80.6883 237.124 80.285L242.239 78.58C244.696 77.7366 246.419 76.6183 247.409 75.225C248.436 73.8316 248.949 71.7966 248.949 69.12L248.949 68.075C248.949 64.8116 247.996 62.3733 246.089 60.76C244.219 59.1466 241.139 58.34 236.849 58.34C234.759 58.34 232.082 58.7066 228.819 59.44L228.929 63.675C231.972 62.9417 234.576 62.575 236.739 62.575C239.489 62.575 241.432 62.9783 242.569 63.785C243.706 64.6283 244.274 65.93 244.274 67.69L244.274 69.505C244.274 70.7883 243.981 71.76 243.394 72.42C242.844 73.1166 241.854 73.7033 240.424 74.18L234.759 76.05C232.229 76.8933 230.469 77.975 229.479 79.295C228.489 80.6517 227.994 82.6867 227.994 85.4L227.994 86.005C227.994 89.195 228.837 91.5967 230.524 93.21C232.247 94.86 234.961 95.685 238.664 95.685Z" fill="#7159C1"/>
<line x1="40" y1="52" x2="251" y2="54" stroke="#7159C1" stroke-width="4"/>
</svg>
